Land_normalized_Motion_pl16
version=1
nRows=8
nColumns=43
inDegrees=yes
endheader
time		pelvis_tilt		pelvis_list		pelvis_rotation		pelvis_tx		pelvis_ty		pelvis_tz		hip_flexion_r		hip_adduction_r		hip_rotation_r		knee_angle_r		ankle_angle_r		subtalar_angle_r		mtp_angle_r		hip_flexion_l		hip_adduction_l		hip_rotation_l		knee_angle_l		ankle_angle_l		subtalar_angle_l		mtp_angle_l		lumbar_extension		lumbar_bending		lumbar_rotation		neck_flexion		neck_lateral_bending		neck_rotation		arm_flex_r		arm_add_r		arm_rot_r		elbow_flex_r		pro_sup_r		wrist_flex_r		wrist_dev_r		hand_finger_flex_r		arm_flex_l		arm_add_l		arm_rot_l		elbow_flex_l		pro_sup_l		wrist_flex_l		wrist_dev_l		hand_finger_flex_l		
1.280833		-0.044786		-0.951459		83.461851		-0.022044		0.493376		0.553447		92.114332		-1.758883		-2.033515		-130.251842		14.159333		5.011192		41.751586		88.487110		-15.121663		-2.819049		-130.706535		14.900243		7.689807		44.907773		-65.258314		-3.252867		0.710676		12.483028		-5.717726		3.659257		77.653158		-27.827483		24.156569		66.722199		117.317245		-16.360950		4.219560		33.269749		59.513317		-38.836657		11.910239		78.160077		107.265479		-18.766626		-1.355088		25.155083		
1.284141		0.090149		-1.502658		83.463633		-0.022027		0.489511		0.552903		92.962125		-1.777610		-2.297736		-130.612209		14.384894		4.982492		41.685987		89.316896		-15.294672		-2.709407		-131.066383		15.378719		7.427028		45.011930		-65.028475		-3.217339		0.958274		12.541749		-5.693388		3.545965		79.277499		-27.523841		24.538156		66.592661		117.421473		-15.967589		4.290174		33.456584		61.669087		-38.552632		12.881178		77.763006		106.856555		-18.901299		-0.957330		25.274896		
1.287449		0.144740		-1.931512		83.447529		-0.022153		0.486166		0.552222		93.636705		-1.808818		-2.439795		-130.937982		14.587075		4.964737		41.667619		89.940516		-15.435114		-2.691827		-131.390888		15.678342		7.290632		45.061837		-64.943047		-3.204769		1.034400		12.773887		-5.693995		3.514396		80.807743		-26.884513		24.589602		66.349975		117.463940		-15.781688		4.354673		33.514409		63.469823		-38.080252		13.183074		77.436404		106.617791		-18.992834		-0.737277		25.310861		
1.290758		0.338364		-2.554175		83.467677		-0.022209		0.482117		0.551648		94.531496		-1.807590		-2.756015		-131.304933		14.791982		4.900022		41.426196		90.904099		-15.520885		-2.484113		-131.813961		16.225639		6.936944		45.312049		-64.592483		-3.105077		1.381575		12.722185		-5.670850		3.324498		82.333465		-26.706165		24.996351		66.313480		117.383409		-15.086868		4.405452		34.038336		65.665856		-38.076819		14.886965		77.052267		104.808057		-19.817360		-0.124737		25.725140		
1.294066		0.333622		-3.001883		83.421816		-0.022273		0.478854		0.550930		95.206924		-1.739075		-2.826316		-131.643417		15.129974		4.820563		41.415257		91.518354		-15.604820		-2.516363		-132.149127		16.610601		6.774210		45.369157		-64.469034		-3.096128		1.302736		12.998184		-5.861103		3.449482		83.844421		-25.981025		25.239194		66.082168		117.450524		-14.941229		4.419251		34.060545		67.286992		-37.891355		15.213266		76.762264		104.641084		-19.852273		-0.088718		25.860865		
1.297374		0.389100		-3.585796		83.407101		-0.022431		0.475168		0.550283		96.044923		-1.693424		-2.959098		-131.992778		15.411130		4.719823		41.364604		92.371823		-15.625075		-2.469787		-132.534972		17.142576		6.424932		45.440801		-64.170935		-2.997723		1.272533		13.149482		-6.149596		3.591830		85.461952		-25.460211		25.930625		65.870973		117.428220		-14.593765		4.375800		34.140215		68.953522		-38.021967		16.002726		76.554268		104.072202		-19.847163		0.027970		26.086387		
1.300682		0.499478		-4.109336		83.404297		-0.022642		0.471834		0.549698		96.786616		-1.645554		-3.156325		-132.288102		15.602592		4.541005		41.174961		93.180354		-15.593351		-2.345435		-132.897744		17.447718		6.048059		45.587829		-63.964437		-2.844459		1.246685		13.421664		-6.427672		3.749672		87.113462		-24.902212		26.733249		65.598764		116.927342		-14.528413		4.326702		34.077669		70.660944		-38.306842		17.123364		76.338234		102.400397		-20.611368		0.096765		26.392968		
1.303990		0.599106		-4.550161		83.379017		-0.022792		0.468885		0.549142		97.427567		-1.556244		-3.317904		-132.560689		15.774038		4.380774		40.913577		93.869497		-15.580663		-2.237731		-133.228357		17.660675		5.753113		45.792132		-63.869197		-2.732395		1.193768		13.755767		-6.643413		3.898245		88.713691		-24.329493		27.514738		65.340610		116.220370		-14.740280		4.293732		33.908381		72.423490		-38.624004		18.404066		76.086769		100.413051		-21.867374		0.048166		26.798274		
